<svg width="540" height="80" xmlns="http://www.w3.org/2000/svg" version="1.1">
 <g id="Layer_1">
  <title>Layer 1</title>
  <g text-anchor="middle" font-family="'Permanent Marker'" font-size="72px" font-weight="normal" font-style="normal" id="svg_21">
   <path transform="translate(0 397.632)" d="m14.04354,-329.84124q-0.69943,-0.69942 -1.04914,-1.66113q-0.26228,-0.96171 -1.39885,-1.57371q-0.17485,-1.31142 -0.52456,-2.97255q-0.26229,-1.74856 -0.61201,-3.49713q-0.26228,-1.836 -0.43713,-3.58456q-0.08742,-1.83599 0.17485,-3.32227q0.17486,-0.78685 0.52457,-1.48627q0.43714,-0.69943 0.78685,-1.31143q0.43714,-0.69943 0.612,-1.39885q0.26229,-0.69943 0.08742,-1.39885q0.52457,-0.08743 0.612,-0.52458q0.17485,-0.52456 0.87427,-0.34971q0.612,-1.92341 1.31143,-3.58455q0.69942,-1.66114 1.48627,-3.23484q0.78687,-1.57372 1.57372,-3.14742q0.87427,-1.66114 1.5737,-3.67199q-1.48628,-1.39885 -2.1857,-2.97255q-0.612,-1.66114 -0.96172,-3.32228q-0.34971,-1.66112 -0.52456,-3.32226q-0.17486,-1.74857 -0.69942,-3.49713q1.04913,-1.57371 2.53541,-2.53541q1.48628,-1.04914 3.23484,-1.66114q1.836,-0.69943 3.93428,-1.04914q2.09827,-0.43714 4.45883,-0.96171q4.19655,-1.31143 7.51883,-2.01086q3.32226,-0.78685 6.46968,-1.22398q3.14741,-0.52458 6.55711,-0.87429q3.40971,-0.43714 7.86855,-1.22399q0.08741,0.26229 0.26227,0.26229q0.26229,0 0.612,0q0.26229,0.61199 0.96171,0.61199q0,-0.26228 -0.08741,-0.43714q0,-0.26229 0,-0.43714q0.17485,0 0.43714,0.08743q0.34971,0.08742 0.52456,0.17485q0.26229,0.08742 0.43715,0q0.17485,-0.17485 0.08742,-0.61199q1.04913,1.83599 2.71027,3.05997q1.66113,1.13658 3.67198,2.01086q0.08741,0.78685 0,1.13656q0,0.34971 -0.08741,0.69942q-0.08741,0.26229 -0.08741,0.69943q0,0.34971 0.17485,1.04914q-1.39886,2.36056 -3.23484,3.67199q-1.74857,1.31142 -3.75942,2.01085q-2.01085,0.69943 -4.28398,1.04914q-2.1857,0.34971 -4.54626,0.78685q-2.27314,0.34971 -4.63369,1.04914q-2.36057,0.69942 -4.63371,2.09827q-0.69942,-0.26228 -1.31141,-0.17486q-0.52458,0 -1.13658,0.17486q-0.61198,0.17485 -1.39885,0.34972q-0.69942,0.17485 -1.74856,0q-0.69943,0.612 -1.66113,0.87427q-0.87429,0.26229 -1.836,0.52458q0.43715,0.96171 0.34971,1.92341q0,0.96171 0.26229,1.66114q3.67199,0.34971 8.13082,0q4.45884,-0.43714 8.74282,-0.612q0.08741,0.43715 -0.08741,0.612q-0.17485,0.17486 -0.17485,0.612q0.78685,0.52456 1.48627,1.31143q0.69943,0.78685 1.39885,1.5737q0.78685,0.69942 1.5737,1.224q0.78687,0.43714 1.83601,0.34971q0.43713,0.87428 0.61198,1.83599q0.17487,0.96171 -0.26227,2.01085q-1.74857,1.13656 -3.4097,2.36055q-1.66114,1.13658 -3.49713,2.09828q-1.74857,0.96171 -3.84684,1.57371q-2.09828,0.612 -4.54627,0.52457q-0.43714,0 -0.78685,0q-0.26229,0 -0.69942,-0.34972q-0.87429,0.43715 -2.36057,0.34972q-1.39885,-0.17485 -2.36056,0.26228q-1.22399,-0.43713 -2.88513,-0.43713q-1.57371,0 -2.7977,-0.43714q-1.57372,2.27312 -2.97257,4.80854q-1.39885,2.44799 -2.44799,5.24569q3.58457,0.52458 5.94512,0.43715q2.36057,-0.08742 4.45884,-0.34971q2.09828,-0.26229 4.28398,-0.52458q2.27314,-0.26229 5.50798,-0.17485q2.1857,-1.04914 4.9834,-1.39885q2.88514,-0.43715 5.33313,-1.224q0.87428,0.26229 1.48628,1.04914q0.612,0.69942 1.13656,1.48627q0.612,0.69943 1.224,1.22401q0.61199,0.52456 1.5737,0.34971q0.43714,0.43714 0.52458,1.04914q0.17485,0.612 0.26227,1.13656q0.17487,0.52457 0.43715,0.87429q0.26228,0.26227 0.9617,0.17485q-1.66112,3.4097 -3.7594,5.24569q-2.01085,1.83599 -4.6337,2.88513q-2.53542,0.96171 -5.77026,1.48628q-3.14741,0.43714 -7.08168,1.13657q-0.96171,0.17485 -1.66113,0q-0.612,-0.26229 -1.31143,-0.26229q-2.44799,0.43714 -5.85769,0.87429q-3.32227,0.43714 -6.73197,0.34971q-3.4097,-0.08744 -6.55712,-0.87429q-3.14741,-0.78685 -5.24569,-2.7977l-0.00002,0z" id="svg_12"/>
   <path transform="translate(0 397.632)" d="m104.45397,-381.07415q3.67199,0.43714 6.55712,1.48628q2.88513,1.04913 4.89598,2.7977q1.39885,2.1857 2.62284,4.72113q1.31142,2.53541 1.92342,5.33311q0.69943,2.71028 0.61201,5.59541q0,2.88512 -1.22401,5.85769q-2.53541,3.14741 -6.2074,5.15825q-3.58455,1.92343 -7.78111,3.14742q-4.19655,1.224 -8.74281,2.09827q-4.45884,0.87429 -8.74282,1.74857q0.08741,2.01085 0,4.28399q0,2.1857 -0.43714,4.45882q-0.34971,2.18572 -1.13656,4.284q-0.78687,2.09827 -2.09828,3.84684q-1.48629,0 -3.05999,0.34971q-1.57371,0.43714 -2.7977,0.69942q-0.612,-0.34971 -1.13657,-0.69942q-0.43715,-0.26229 -1.31142,-0.34971q0.17485,-0.87429 -0.43714,-1.74857q-0.612,-0.96171 -1.224,-1.92342q-0.612,-0.96172 -0.87428,-1.83599q-0.17486,-0.87429 0.87428,-1.66114q-0.612,-0.612 -0.612,-1.5737q0.612,-1.04914 1.04914,-2.88514q0.52457,-1.83599 0.78686,-3.58456q0.34971,-1.83598 0.17485,-3.32226q-0.17485,-1.48629 -1.74856,-2.18571q0.08741,-0.17485 0.34971,-0.17485q0.26229,0 0.52458,-0.08743q-0.69943,-0.52456 -0.87429,-1.48628q-0.08742,-0.96171 -0.612,-1.66113q0.17486,-0.43714 0.26228,-0.78685q0.08742,-0.34972 0.612,-0.26229q-0.26228,-1.5737 0,-2.97255q0.34972,-1.39886 0.96172,-2.62286q0.61199,-1.31142 1.48627,-2.53541q0.87428,-1.224 1.66114,-2.44799q0.61199,-0.08743 0.69943,0.17485q0.17485,0.26229 0.61199,-0.08742q1.13657,-0.87428 1.57371,-1.83599q0.43714,-0.96172 0.43714,-2.18571q0.612,-1.836 1.48627,-3.67199q0.87429,-1.92341 1.92343,-3.49712q1.04914,-1.5737 2.27313,-2.7977q1.31142,-1.22399 2.71027,-1.83599q1.04914,-0.87429 2.62286,-1.57372q1.5737,-0.78685 3.40969,-1.13656q1.836,-0.43714 3.67199,-0.43714q1.92341,-0.08742 3.49712,0.34971q0.43714,0.17485 0.43714,-0.17486q0.08741,-0.34971 0.34971,-0.34971zm-3.58455,20.89534q2.1857,-0.96171 4.63369,-1.48629q2.53542,-0.61199 4.19655,-2.1857q-1.04913,-0.96171 -3.05998,-1.66114q-2.01084,-0.78685 -4.37141,-0.9617q-2.36056,-0.17486 -4.80855,0.43714q-2.36057,0.52456 -4.10913,2.09827q-0.52456,1.5737 -0.87427,2.53542q-0.34972,0.87429 -0.96172,2.1857q0.17486,0.43715 0.52458,0.69942q0.43714,0.17487 0.61199,0.61201q2.01085,-1.04914 4.0217,-1.13657q2.09827,-0.17486 4.19655,-1.13656z" id="svg_13"/>
   <path transform="translate(0 397.632)" d="m169.51028,-335.34921q0.17486,2.27313 -0.52457,3.7594q-0.69942,1.48629 -1.92342,2.53543q-1.22399,1.04914 -2.7977,1.66113q-1.57371,0.612 -3.05998,1.13657q-0.69943,-0.43715 -1.39885,-0.87428q-0.612,-0.52457 -1.48629,-0.78686q-1.13656,-2.09827 -2.1857,-3.67199q-1.04914,-1.66112 -0.96172,-3.7594q0,-0.08742 0.08742,-0.96171q0.17485,-0.87429 0.34971,-1.92343q0.26228,-1.04914 0.34971,-1.92341q0.17485,-0.96171 0.17485,-1.04914q-2.01085,0.17485 -4.19655,0.87428q-2.1857,0.69942 -4.28398,1.66113q-2.01085,0.96172 -3.84684,1.92343q-1.74856,0.9617 -2.88513,1.66113q0,0.26228 -0.34971,1.31142q-0.34971,0.96172 -0.87429,2.09828q-0.52456,1.04914 -1.13656,1.92343q-0.612,0.87427 -1.224,0.87427q0.08741,0.26229 0.26229,0.52458q0.17486,0.26227 0,0.69942q-1.22399,0.34971 -2.1857,0.87428q-0.96172,0.612 -2.01086,0.96171q-1.04913,0.43714 -2.27312,0.43714q-1.224,0 -2.88514,-0.87428q0,-0.52457 -0.43714,-0.87428q-0.43714,-0.43714 -0.96171,-0.69943q-0.43714,-0.34971 -0.78685,-0.52456q-0.34972,-0.26229 -0.34972,-0.43715q-0.43713,0.08743 -0.34971,-0.61199q0.08741,-0.69943 0.69943,-0.34971q-0.96172,-1.22401 -1.22399,-2.09828q-0.17486,-0.96171 -0.96172,-2.36056q0.17485,-0.17487 0.34972,-0.61201q0.08741,-0.43713 0.17485,-0.78685q0.08741,-0.34971 0.26229,-0.52457q0.17486,-0.17485 0.43713,0.08744q-0.17485,-0.78687 0,-1.31143q0.17487,-0.52458 0.34972,-0.96171q0.17486,-0.43714 0.26228,-0.87428q0.08742,-0.43715 -0.26228,-0.96171q1.39885,-1.92343 1.836,-4.10913q0.43714,-2.27313 0.52456,-4.10913q0.612,-0.61199 1.04914,-1.74856q0.52457,-1.13656 0.78685,-2.27313q0.26229,-1.224 0.17486,-2.27314q0,-1.13656 -0.26229,-1.83599q0.08742,-0.43713 0.96172,-0.26228q0.52456,-2.88513 0.69942,-6.46968q0.26229,-3.67199 0.78685,-6.90683q0.52458,-3.32227 1.74857,-5.77026q1.224,-2.53542 3.93426,-3.32227q0.52458,1.83598 1.31143,3.23484q0.87429,1.39885 1.83599,2.71027q1.04914,1.224 2.01085,2.53542q1.04914,1.31142 1.92342,2.97256q-0.08741,1.66114 -0.34971,3.84684q-0.26229,2.1857 -0.69942,4.45884q-0.34972,2.27313 -0.78687,4.37141q-0.34971,2.09827 -0.69942,3.58455q0.08741,0.43715 0.43715,0.52457q0.43714,0.08743 0.17485,0.78685q2.09827,-0.52456 4.37141,-0.96171q2.27313,-0.43714 4.54627,-0.9617q2.27313,-0.52458 4.3714,-1.13658q2.1857,-0.69942 4.02171,-1.66112q0.43713,-3.4097 1.13656,-6.81941q0.69942,-3.4097 0.17485,-6.99425q0.43715,-0.34971 0.69942,-0.87428q0.26229,-0.52457 0.87429,-0.69942q-0.43714,-1.66114 -0.34971,-3.49713q0.08741,-1.836 0.612,-3.49713q0.61199,-1.66114 1.66113,-2.7977q1.13657,-1.224 2.71027,-1.57371q0.96172,1.39885 1.66114,3.05999q0.69943,1.5737 1.39885,3.23484q0.78685,1.57371 1.5737,3.05999q0.87429,1.39885 2.18572,2.44798q0.26227,2.53542 0.34971,5.2457q0.17485,2.71027 0.26228,5.50797q-0.69943,3.32227 -1.5737,6.46968q-0.78686,3.05999 -1.13657,6.55712q-0.612,0.69943 -0.96171,1.5737q-0.34971,0.87429 -0.69943,1.836q-0.34971,0.87428 -0.78685,1.74857q-0.43715,0.78685 -1.04914,1.39885q0.34972,1.04914 0.08742,2.01084q-0.17487,0.87429 0.52456,2.18571l0.00004,0z" id="svg_14"/>
   <path transform="translate(0 397.632)" d="m231.85628,-376.09075q0.08742,0.612 0,0.96171q0,0.26229 -0.08741,0.52457q0,0.26229 0,0.612q0,0.26229 0.17485,0.87429q-1.83599,2.97255 -4.28398,4.10911q-2.36056,1.04914 -5.15826,1.57372q-2.7977,0.43713 -5.77026,0.96171q-2.88514,0.52456 -5.77026,2.27313q-1.13657,-0.43714 -2.09828,0q-0.87428,0.43713 -2.62284,0.26228q-0.52457,0.52457 -1.31143,0.78685q-0.78685,0.17487 -1.57371,0.43714q0.34971,0.78686 0.26229,1.66114q0,0.78685 0.26229,1.31143q3.05999,0.26228 6.73196,-0.08743q3.75942,-0.34971 7.34397,-0.43714q0.08741,0.43714 -0.08741,0.612q-0.17486,0.08742 -0.08741,0.43714q0.61198,0.43714 1.22398,1.13656q0.612,0.612 1.22401,1.22401q0.61198,0.61198 1.22398,1.04913q0.69943,0.34972 1.57372,0.26228q0.34971,0.69942 0.43714,1.57371q0.17485,0.78685 -0.17487,1.66114q-1.39885,0.9617 -2.7977,2.01084q-1.39885,0.96171 -2.97255,1.74856q-1.48628,0.78687 -3.23484,1.31143q-1.66114,0.43714 -3.75942,0.34971q-0.43713,0 -0.69942,0q-0.17486,0 -0.52458,-0.26229q-0.69942,0.43714 -2.01084,0.26229q-1.224,-0.17485 -1.92342,0.26229q-0.96172,-0.43714 -2.36057,-0.34971q-1.31141,0 -2.36055,-0.34972q-1.39885,1.83599 -2.53543,3.93427q-1.13656,2.09828 -2.01083,4.45884q2.97255,0.43714 4.89597,0.34971q2.01084,-0.08742 3.75941,-0.26228q1.74856,-0.26229 3.58456,-0.43714q1.83599,-0.26229 4.63369,-0.17486q1.74857,-0.96172 4.10913,-1.22399q2.44799,-0.34972 4.45883,-1.04914q0.69942,0.26227 1.224,0.9617q0.52456,0.612 0.96171,1.224q0.52457,0.52456 1.04914,0.96171q0.52456,0.43714 1.31141,0.34972q0.34972,0.34971 0.43715,0.87427q0.17485,0.43714 0.26228,0.87429q0.08741,0.43714 0.26229,0.78685q0.26229,0.26229 0.78685,0.17485q-1.31142,2.88514 -3.05998,4.45884q-1.66114,1.48628 -3.84684,2.27314q-2.18571,0.78685 -4.89598,1.22399q-2.62285,0.43714 -5.85769,1.04914q-0.78685,0.17486 -1.31143,-0.08743q-0.52456,-0.17486 -1.22398,-0.17486q-2.01086,0.43715 -4.80856,0.78686q-2.7977,0.34971 -5.68283,0.26228q-2.88514,-0.08743 -5.50798,-0.78685q-2.62285,-0.612 -4.28397,-2.27313q-0.69943,-0.612 -0.96172,-1.39885q-0.17486,-0.87429 -1.13656,-1.31143q-0.08741,-1.13656 -0.34971,-2.53541q-0.26229,-1.39885 -0.52458,-2.88514q-0.26229,-1.5737 -0.43714,-3.05998q-0.08741,-1.48629 0.17485,-2.71027q0.26229,-1.31143 1.04914,-2.36057q0.87429,-1.04914 0.612,-2.27313q0.43714,-0.08742 0.52458,-0.43713q0.08741,-0.43715 0.69942,-0.34972q0.52457,-1.57371 1.13657,-2.97256q0.612,-1.39885 1.22399,-2.71028q0.69942,-1.31141 1.31142,-2.62284q0.69943,-1.39885 1.31143,-3.05999q-1.224,-1.13656 -1.83599,-2.44799q-0.52458,-1.39885 -0.78686,-2.71027q-0.26228,-1.39885 -0.43714,-2.7977q-0.17485,-1.48628 -0.612,-2.97256q0.87429,-1.31142 2.09827,-2.09827q1.31143,-0.87429 2.79771,-1.39885q1.48628,-0.52458 3.23485,-0.87429q1.74856,-0.34972 3.67198,-0.78685q3.49712,-1.13657 6.2074,-1.74857q2.7977,-0.612 5.42054,-0.96171q2.71028,-0.43714 5.59541,-0.78685q2.88514,-0.34971 6.55711,-1.04914q0.78685,0.78685 1.48628,0.78685q0.34971,-0.78685 0.78686,-0.43714q0.52456,0.26229 0.43714,-0.52456q0.87428,1.48628 2.1857,2.53542q1.39885,0.96171 3.05999,1.66113l-0.00004,-0.00001z" id="svg_15"/>
   <path transform="translate(0 397.632)" d="m296.47545,-328.44239q-0.87429,0.43715 -1.66114,0.78686q-0.69943,0.34971 -1.66114,0.34971q-3.40969,-2.53542 -3.58455,-8.83025q-0.08742,-6.29483 2.71027,-15.99935q0.43714,-0.26229 0.43714,-1.04914l-0.78685,-0.87429q-0.34971,0 -0.69942,0.08743q-0.26229,0.08742 -0.43714,0.612q-2.27314,1.66114 -4.98342,3.49713q-2.71026,1.74856 -5.68283,3.32226q-2.88512,1.48629 -5.94511,2.44799q-2.97256,0.96171 -5.8577,0.96171q-7.34396,0 -11.01594,-7.43139l-0.69943,-1.31143l-0.69942,1.13658q-0.26229,0.34971 -0.78685,1.48628q-0.52458,1.04913 -1.04914,2.44799q-0.52458,1.39885 -0.96171,2.88512q-0.34972,1.39885 -0.26229,2.44799q-0.78685,0.78685 -1.66114,1.83599q-0.87428,1.04914 -1.31141,2.36056q-0.17487,0.69943 0.17485,1.31143q-0.17485,0.78685 -0.78685,1.22399q-0.34972,0.43715 -0.78685,0.87429q-0.34972,0.34971 -0.61201,0.78685q-0.17486,0.43714 -0.26228,0.87429q0,0.43713 -0.08742,0.87427q0,0.612 -0.17486,1.13657q-1.48627,3.05998 -2.36055,3.93427q-0.87429,0.9617 -2.36056,0.9617q-0.69943,0 -2.27314,-0.26227q-1.13657,-1.224 -2.09828,-3.32228q-0.87428,-2.1857 -1.39885,-4.63369q-0.43714,-2.44799 -0.43714,-4.89598q0.08741,-2.53543 0.87429,-4.37141q0,-0.08743 0.69943,-1.74857q0.69942,-1.66114 1.74856,-4.28398q1.13656,-2.62284 2.53541,-5.77025q1.39885,-3.23485 2.79771,-6.2074q1.39885,-3.05999 2.62283,-5.59541q1.31143,-2.53541 2.18572,-3.84684q0.69942,-1.04914 1.22399,-1.92342q0.612,-0.96171 1.13656,-1.83599q1.57371,-2.71028 2.97257,-4.45884q1.48627,-1.83599 4.28397,-2.88513q1.92343,0.78685 2.79771,1.83599l0.17486,0.96171q0.34971,0.87429 1.04914,0.87429q0.9617,0.26227 1.5737,0.52456q0.69942,0.17486 1.48627,0.34971q0.612,0.69943 1.13658,1.66114q0.69942,1.04914 1.31141,2.09828q0.69943,0.96171 1.04914,2.01085q0.43715,0.9617 0.43715,2.01084q0.08741,1.04914 -0.34971,2.18571l0.08741,0.87428q0.43714,0.78685 0.17485,2.1857q-0.08741,0.612 -0.08741,1.31143q0,0.612 0.17486,1.39885q1.5737,1.224 2.7977,1.224q1.39885,0 2.53542,-0.612q1.22399,-0.69943 2.27312,-1.39885q0.69943,-0.52458 1.39885,-0.87429q0.69943,-0.43714 1.39886,-0.52456q1.57371,-1.48628 2.7977,-2.62286q1.31142,-1.13656 2.71027,-2.27312q2.62286,-2.09828 5.07085,-4.54627q2.44799,-2.44799 3.93426,-6.11998q0.87428,-0.52456 1.83599,-0.52456q0.96171,0 2.01085,0.43714q1.04914,0.43714 2.01085,0.87429q0.26228,0.17485 0.43714,0.26227q0.26229,0.08743 0.43714,0.17486q0,0.87428 0.69942,1.48628q0.34972,0.26229 0.43714,0.34971q0.08741,0.08743 0.26229,0.17487q1.31143,0.69942 1.66114,1.39885q0.612,2.01084 2.1857,3.05997q-0.17485,0.87429 0,1.66114q0.26229,0.69943 0.612,1.48628q0.08741,0.26229 0.17485,0.52457q0.08741,0.26229 0.26229,0.612l-1.66114,-0.17486l0.26229,1.66114q0.17486,1.22399 -0.26229,2.71028q-0.34971,1.48627 -0.87428,2.36055q0.08742,2.27314 0.08742,3.58456q0.08741,1.22399 -0.08742,2.36056q-0.17486,1.04913 -0.52457,2.01085q-0.26228,0.96171 -0.78685,2.09827q0.34971,5.59541 -1.31143,10.2291q-1.5737,4.54626 -3.32226,8.56797q-0.17487,0.43713 -0.43714,0.87427q-0.17486,0.43715 -0.34971,0.87429q-0.78687,0.26229 -1.39885,0.612q-0.61201,0.26228 -1.31143,0.61199l-0.00001,0z" id="svg_16"/>
   <path transform="translate(0 397.632)" d="m363.89226,-376.09075q0.08741,0.612 0,0.96171q0,0.26229 -0.08742,0.52457q0,0.26229 0,0.612q0,0.26229 0.17485,0.87429q-1.83598,2.97255 -4.28397,4.10911q-2.36057,1.04914 -5.15827,1.57372q-2.7977,0.43713 -5.77025,0.96171q-2.88514,0.52456 -5.77027,2.27313q-1.13656,-0.43714 -2.09828,0q-0.87427,0.43713 -2.62284,0.26228q-0.52457,0.52457 -1.31142,0.78685q-0.78685,0.17487 -1.57372,0.43714q0.34972,0.78686 0.26229,1.66114q0,0.78685 0.26229,1.31143q3.05999,0.26228 6.73197,-0.08743q3.75941,-0.34971 7.34396,-0.43714q0.08742,0.43714 -0.08741,0.612q-0.17486,0.08742 -0.08741,0.43714q0.61199,0.43714 1.22399,1.13656q0.612,0.612 1.224,1.22401q0.61199,0.61198 1.22399,1.04913q0.69942,0.34972 1.57371,0.26228q0.34971,0.69942 0.43714,1.57371q0.17485,0.78685 -0.17486,1.66114q-1.39886,0.9617 -2.79771,2.01084q-1.39885,0.96171 -2.97255,1.74856q-1.48627,0.78687 -3.23484,1.31143q-1.66114,0.43714 -3.75941,0.34971q-0.43714,0 -0.69943,0q-0.17486,0 -0.52457,-0.26229q-0.69943,0.43714 -2.01084,0.26229q-1.224,-0.17485 -1.92343,0.26229q-0.96171,-0.43714 -2.36056,-0.34971q-1.31142,0 -2.36056,-0.34972q-1.39885,1.83599 -2.53542,3.93427q-1.13657,2.09828 -2.01084,4.45884q2.97255,0.43714 4.89598,0.34971q2.01084,-0.08742 3.7594,-0.26228q1.74856,-0.26229 3.58456,-0.43714q1.83599,-0.26229 4.6337,-0.17486q1.74856,-0.96172 4.10912,-1.22399q2.44799,-0.34972 4.45883,-1.04914q0.69943,0.26227 1.224,0.9617q0.52457,0.612 0.96172,1.224q0.52456,0.52456 1.04913,0.96171q0.52457,0.43714 1.31142,0.34972q0.34971,0.34971 0.43715,0.87427q0.17485,0.43714 0.26227,0.87429q0.08742,0.43714 0.26229,0.78685q0.26229,0.26229 0.78685,0.17485q-1.31141,2.88514 -3.05998,4.45884q-1.66113,1.48628 -3.84684,2.27314q-2.18571,0.78685 -4.89597,1.22399q-2.62286,0.43714 -5.8577,1.04914q-0.78685,0.17486 -1.31142,-0.08743q-0.52457,-0.17486 -1.22399,-0.17486q-2.01085,0.43715 -4.80855,0.78686q-2.79771,0.34971 -5.68283,0.26228q-2.88514,-0.08743 -5.50798,-0.78685q-2.62285,-0.612 -4.28398,-2.27313q-0.69943,-0.612 -0.96171,-1.39885q-0.17487,-0.87429 -1.13657,-1.31143q-0.08741,-1.13656 -0.34971,-2.53541q-0.26229,-1.39885 -0.52457,-2.88514q-0.26229,-1.5737 -0.43714,-3.05998q-0.08742,-1.48629 0.17485,-2.71027q0.26229,-1.31143 1.04914,-2.36057q0.87428,-1.04914 0.612,-2.27313q0.43713,-0.08742 0.52457,-0.43713q0.08741,-0.43715 0.69943,-0.34972q0.52456,-1.57371 1.13656,-2.97256q0.612,-1.39885 1.22399,-2.71028q0.69942,-1.31141 1.31142,-2.62284q0.69943,-1.39885 1.31143,-3.05999q-1.224,-1.13656 -1.83599,-2.44799q-0.52457,-1.39885 -0.78686,-2.71027q-0.26228,-1.39885 -0.43714,-2.7977q-0.17485,-1.48628 -0.612,-2.97256q0.87429,-1.31142 2.09828,-2.09827q1.31142,-0.87429 2.7977,-1.39885q1.48629,-0.52458 3.23485,-0.87429q1.74856,-0.34972 3.67198,-0.78685q3.49713,-1.13657 6.2074,-1.74857q2.79771,-0.612 5.42054,-0.96171q2.71028,-0.43714 5.59541,-0.78685q2.88514,-0.34971 6.55712,-1.04914q0.78685,0.78685 1.48627,0.78685q0.34971,-0.78685 0.78686,-0.43714q0.52457,0.26229 0.43714,-0.52456q0.87428,1.48628 2.1857,2.53542q1.39886,0.96171 3.05999,1.66113l-0.00003,-0.00001z" id="svg_17"/>
   <path transform="translate(0 397.632)" d="m381.30016,-335.96121q-0.96172,3.49713 -1.74857,5.33312q-0.69942,1.74856 -2.1857,3.67199q-1.13657,-0.17486 -1.57371,0.26229q-0.43714,0.43713 -0.96172,0.78685q-0.78685,0.17485 -1.13656,0q-0.34971,-0.17487 -0.612,-0.43715q-0.26227,-0.17485 -0.69942,-0.43714q-0.34972,-0.17485 -1.13657,-0.17485q-0.17485,-0.69943 -0.43714,-1.31143q-0.17486,-0.612 -1.13656,-0.43713q0.17485,-0.69943 0.08741,-1.13658q-0.08741,-0.52456 -0.26228,-0.87428q-0.08742,-0.43713 -0.17485,-0.78685q-0.08742,-0.43715 0.08741,-1.04914q-0.43714,0 -0.69943,-0.612q-0.26228,-0.612 -0.612,-1.224q0.26229,-1.5737 0.52458,-2.97255q0.26227,-1.39885 0.61199,-2.62285q0.43715,-1.22399 0.69942,-2.44799q0.26229,-1.22399 -0.26227,-2.53541q0.34971,0.26228 0.52456,-0.08743q0.17486,-0.43714 0.26229,-1.04914q0.08741,-0.69942 0.08741,-1.31141q0,-0.69943 -0.08741,-1.13658q0.87427,-2.27312 1.39885,-4.63369q0.612,-2.44799 1.04914,-4.80855q0.52456,-2.36055 1.04913,-4.63369q0.52457,-2.27313 1.39886,-4.19655q0.96171,-0.17485 2.09827,0.26228q1.22399,0.34972 1.48628,0.96172q2.27314,-1.74857 4.0217,-4.19656q1.74856,-2.53542 3.58455,-4.89597q1.83599,-2.36057 4.02169,-4.19656q2.27314,-1.836 5.68285,-2.18571q1.74856,1.31142 3.84684,2.71027q2.1857,1.31143 3.58455,3.49713q0.69942,0.34972 1.13656,0.78685q0.52458,0.34972 1.224,0.78687l0,1.04913q1.04914,0.9617 1.66113,2.27313q0.69942,1.224 1.224,2.71028q0.52456,1.39885 1.04914,2.88512q0.52456,1.39886 1.22399,2.71028q-0.17485,0.43714 -0.17485,0.78685q0,0.26229 0.08741,0.612q0.17486,0.34972 0.26229,0.69943q0.08741,0.34971 0,0.96171q-0.26229,3.84684 -2.53542,6.20739q-2.18571,2.36057 -5.33313,3.93428q-3.14741,1.48628 -6.73196,2.53542q-3.58456,1.04913 -6.46968,2.27312q0,0.34971 0.26227,0.34971q0.34971,0 0.26229,0.43714q2.09828,1.31143 3.32228,2.09828q1.22398,0.78686 2.27312,1.31143q1.13657,0.52457 2.36057,0.96171q1.31142,0.34971 3.58455,0.87427q2.27314,0.52458 3.49713,0.87429q1.31142,0.26229 2.36056,0.52456q1.04914,0.17487 2.09828,0.34972q1.13656,0.08744 3.14741,0.26229q0.78685,0.78685 1.31143,1.92342q0.61199,1.04914 0.78685,2.1857q0.17485,1.04914 0.08741,2.09828q-0.08741,0.96171 -0.612,1.5737q0.08741,0.26229 0.34971,0.26229q0.34972,-0.08743 0.69943,0q-0.52456,0.34971 -0.87428,0.87429q-0.34971,0.52456 -0.69942,1.04913q-0.34971,0.52457 -0.78685,0.87428q-0.43715,0.43714 -1.224,0.52458q-2.71028,1.04913 -6.8194,0.08742q-4.10912,-0.87429 -10.40395,-3.32228q-3.14742,-1.22398 -5.15827,-2.09827q-1.92341,-0.9617 -3.4097,-1.83599q-1.39885,-0.96171 -2.62284,-2.01085q-1.13656,-1.04914 -2.7977,-2.53542l0.00005,0zm12.50223,-29.98787q-0.96171,1.39885 -2.18571,2.53542q-1.13657,1.13657 -2.27313,2.36056q-1.04914,1.13656 -1.92343,2.62285q-0.87427,1.39885 -1.22398,3.32227q3.05999,-0.34972 6.38225,-1.66114q3.32228,-1.39885 6.29483,-2.62284q-0.34971,-2.71028 -1.92341,-4.37142q-1.48629,-1.66112 -3.14742,-2.1857z" id="svg_18"/>
   <path transform="translate(0 397.632)" d="m468.21355,-334.21264q-0.52457,1.48628 -1.57371,3.05999q-0.96171,1.48628 -2.36056,2.71026q-1.31142,1.13658 -2.97256,1.92343q-1.66113,0.78685 -3.49712,0.87429q-1.13657,-0.26229 -1.57372,-0.612q-0.34971,-0.26229 -0.78685,-0.52458q-0.26228,-0.17485 -0.52456,-0.26229q-0.17486,-0.17485 -0.34971,-0.26227l-1.04914,-0.43715l0.34971,-1.13656q0.17485,-0.69943 -0.08741,-1.04914q-0.2623,-0.43714 -1.04916,-1.13657q-0.26228,-0.26228 -0.52457,-0.52457q-0.26228,-0.26228 -0.43713,-0.52456l-1.48629,-1.66114l2.36056,-0.612q2.1857,-0.61199 2.88513,-1.5737q0.78686,-0.96172 0.612,-3.23484q-1.74856,-0.34972 -2.97255,-0.08743q-1.13658,0.26228 -2.36057,0.61199q-1.57371,0.43715 -3.23484,0.78686q-1.57371,0.26228 -3.49712,0.26228q-0.69943,0 -1.31143,0q-0.612,-0.08743 -1.31143,-0.17485l-0.87427,-0.17487q-0.17486,-0.9617 -0.34971,-1.04913q-0.17487,-0.17485 -0.34972,-0.34972q-0.43715,-0.43713 -0.96171,-1.13656q-0.43714,-0.78685 -0.17486,-1.92341q-0.43714,-0.78687 -0.52457,-1.57372q-0.52457,1.04914 -0.78685,2.1857l-0.34971,0.87429l-0.87429,0.17485q-0.17485,0.08743 -0.26229,0.43715q-0.08741,0.26228 -0.08741,0.43714l-0.43714,1.48628q-0.17487,0.17485 -0.34972,0.34971q-0.17486,0.08742 -0.34971,0.26229q-0.17487,0.78685 -0.43714,1.5737q-0.26229,0.78685 -0.52458,1.48627q-0.43713,1.13658 -0.78685,2.27314q-0.26229,1.04914 -0.17486,2.09828l-0.34971,0.96171q-0.43714,0.52457 -0.9617,0.87428q-0.52458,0.26229 -1.04914,0.52457q-0.17486,0.17485 -0.52458,0.34972q-0.26228,0.08742 -0.43714,0.17485l-0.26228,0.96171l-1.04914,0.17485q-0.96171,0.17486 -1.39885,0.26229q-0.34971,0.08742 -0.87428,0.08742l-0.87429,-0.08742q-0.96171,-0.78685 -1.48627,-1.22399q-0.52458,-0.52458 -1.224,-0.96171q-0.78685,-1.04914 -0.87428,-1.57372q-0.08741,-0.52456 -0.17486,-0.9617q-0.17485,-0.52457 -0.17485,-0.87429q-0.08741,-0.34971 -0.26229,-0.52456l-1.13656,-1.04914l0.96171,-0.78686l0.08741,-1.48628q1.74857,-4.45884 3.67198,-8.56795q2.01085,-4.10913 4.10913,-8.39311q0.69942,-1.39885 1.31143,-2.7977q0.69942,-1.39885 1.39885,-2.7977q-0.08742,-0.26229 -0.08742,-0.612q0,-0.34972 0.17485,-0.78685q0.96172,-1.48629 1.57372,-2.62286q0.61199,-1.22398 1.22399,-2.44798q0.69942,-1.48628 1.39885,-2.88513q0.78685,-1.39885 1.92342,-2.88513l1.39885,-0.612q0.26228,-0.08742 0.61199,-0.17486q0.34971,-0.17485 0.78687,-0.17485l1.31141,0.17485q2.44799,-1.13657 4.28399,-3.14742q1.83599,-2.09827 3.7594,-4.9834l0.87429,-1.22399l1.13656,0.69943q0.43714,0.26227 1.224,0.52456q0.78685,0.17486 1.66113,0.43714q1.57371,0.34971 2.97256,0.78686q1.39886,0.43714 2.27313,1.31141q0.52458,1.39886 0.612,2.09828q0.08741,0.69943 0.26229,1.39885q0.26229,1.48629 0.43714,2.97257q0.26228,1.48627 0.34971,3.32226q0.43714,1.48629 0.69943,2.97257q0.34971,1.39885 0.612,2.88512q0.43713,2.09828 0.87427,4.10913q0.43715,1.92341 1.13658,3.67198q0.69942,0 0.87427,0.08742q0.43714,-0.17485 0.87429,-0.26227q0.52456,-0.08743 1.13656,-0.17486l0.96172,-0.08743l0.34971,0.87429q0.08741,0.43714 0.87428,0.87427q1.13656,0.08743 1.66113,0.52458q0.52457,0.34971 0.96172,0.78685q0.34971,0.34971 0.69942,0.52456l1.31142,0.52458l-0.69943,1.31142q-0.87427,1.57371 -2.53541,3.05998q-1.5737,1.39885 -3.58456,2.36057q0.08742,0.52457 0.08742,1.04913q0.08741,0.43714 0.26228,0.96172q0.26229,1.48627 0.43714,3.05999q0.17487,1.5737 0,3.23484l-0.17484,0.34971zm-25.26675,-15.12507q2.62285,-0.17487 4.72113,-0.34972q2.1857,-0.26228 4.80855,-0.78686q-0.612,-2.62284 -1.31142,-5.42054q-0.69943,-2.88513 -1.48628,-5.68283l-0.52458,0.87428q-1.74856,1.83598 -3.4097,4.10912q-1.5737,2.27313 -2.71026,4.28398q-0.52458,0.78685 -1.04914,1.57372q-0.52458,0.78685 -0.96171,1.5737q0.52456,-0.08743 0.96171,-0.08743q0.52456,0 0.9617,-0.08742z" id="svg_19"/>
   <path transform="translate(0 397.632)" d="m479.93862,-366.21136q0.612,-1.83599 1.92342,-3.14742q1.39885,-1.31141 2.97255,-2.1857q1.66114,-0.96171 3.40971,-1.5737q1.74856,-0.612 3.32227,-1.04914q3.49713,-1.48629 7.4314,-2.7977q4.02169,-1.39885 8.13081,-2.44799q4.19656,-1.04914 8.56797,-1.31143q4.37141,-0.34971 9.17996,1.04914q0.26229,0.87428 0.78685,1.66114q0.52458,0.78685 1.04914,1.5737q0.612,0.78685 1.04914,1.57371q0.43713,0.69943 0.52457,1.48628q0.87428,0.78685 1.39885,1.74856q0.52457,0.87428 0.17485,2.36057q-0.87427,0.69942 -1.74856,1.31141q-0.78685,0.52458 -1.74856,0.96172q-3.23484,-0.78686 -6.55712,-0.52457q-3.32227,0.26228 -5.94512,0.43714q-0.78685,-0.78685 -1.92341,-0.78685q-1.04914,0 -2.27314,0.34971q-1.13656,0.34972 -2.36055,0.69943q-1.13658,0.34971 -2.18572,0.17485q-0.87427,0.69942 -2.1857,0.96171q-1.22399,0.17485 -2.71028,0.34971q-0.08741,0.43714 0.17487,0.612q0.26229,0.08743 0.08741,0.52457q0.52458,0.612 1.31143,0.87429q0.87427,0.26227 1.74856,0.52456q0.96171,0.26229 1.66114,0.69942q0.69942,0.34972 0.9617,1.224q1.31142,0 2.27314,0.61199q0.96171,0.612 1.5737,1.48629q0.612,0.87428 0.87429,1.92342q0.34971,0.96171 0.34971,1.74856q0.26229,0.69942 0.612,0.612q0.34971,-0.08743 0.78685,0.34971q0.26229,1.13657 1.31143,2.36057q1.04914,1.13656 1.66112,2.53541q0.17487,2.1857 0.26229,3.93427q0.08741,1.66113 -0.612,3.4097q-1.31141,3.23484 -3.67198,5.77025q-2.27314,2.53543 -5.24569,4.54627q-2.88511,1.92342 -6.20739,3.32228q-3.32227,1.39885 -6.46968,2.36056q-0.34971,-0.08743 -0.69943,0q-0.34971,0.08742 -0.17486,-0.43714q-0.69942,0.61199 -1.5737,0.78685q-0.78686,0.17485 -1.74856,0.08743q-0.96172,0 -2.01085,-0.08743q-0.96172,-0.08742 -1.83599,0.08743q-0.612,-0.612 -1.13658,-1.224q-0.43714,-0.52457 -0.69942,-1.39885q-0.43714,0 -0.43714,-0.43714q0.08741,-0.43714 -0.26229,-0.43714q0.52458,-0.87429 0.43715,-0.96171q0,-0.17485 -0.26229,-0.26229q-0.17486,-0.08743 -0.34971,-0.17485q-0.17486,-0.17486 -0.08741,-0.43714q0.34971,-0.69942 0.26227,-1.57371q-0.08741,-0.96172 -0.17485,-1.92342q-0.08741,-0.96171 0.08742,-1.836q0.26228,-0.87427 1.31142,-1.39885q2.97255,0.34971 5.5954,-0.17485q2.71028,-0.612 5.07083,-1.66114q2.36057,-1.04914 4.45884,-2.27312q2.18571,-1.224 4.28398,-2.18572q0.26229,-0.78685 0.69943,-1.31141q0.52457,-0.52458 1.04914,-0.96171q0.52457,-0.43714 0.96171,-0.96172q0.43714,-0.52456 0.612,-1.31142q0.08741,-0.61199 -0.34971,-0.69943q-0.34972,-0.17485 -0.34972,-0.69942l-0.96171,-0.26228q-1.66114,-0.96171 -3.75941,-1.57371q-2.09828,-0.69943 -3.58456,-1.48628q-0.96171,0.52456 -1.83599,0.26229q-0.78685,-0.26229 -2.09827,-0.52458q-2.97257,-0.17485 -5.77027,-0.612q-2.71026,-0.43714 -5.24569,-1.5737q-0.17485,-0.43714 -0.43714,-0.78685q-0.26229,-0.34971 -0.96171,-0.17486q-0.52456,-0.69943 -1.04914,-1.31143q-0.52456,-0.69942 -0.9617,-1.48627q0.17485,-1.04914 0.26228,-1.74857q0.08741,-0.78685 -0.52457,-1.48627q0.34972,-1.13657 0.52457,-1.83599q0.17486,-0.69943 0,-1.836z" id="svg_20"/>
  </g>
 </g>
</svg>